<svg width="201" height="134" viewBox="0 0 201 134" fill="none" xmlns="http://www.w3.org/2000/svg">
<path d="M0 1H201" stroke="#C6D2E8" stroke-width="0.6" stroke-dasharray="3 3"/>
<path d="M0 13H201" stroke="#C6D2E8" stroke-width="0.6" stroke-dasharray="3 3"/>
<path d="M0 25H201" stroke="#C6D2E8" stroke-width="0.6" stroke-dasharray="3 3"/>
<path d="M0 36H201" stroke="#C6D2E8" stroke-width="0.6" stroke-dasharray="3 3"/>
<path d="M0 49H201" stroke="#C6D2E8" stroke-width="0.6" stroke-dasharray="3 3"/>
<path d="M0 60H201" stroke="#C6D2E8" stroke-width="0.6" stroke-dasharray="3 3"/>
<path d="M0 73H201" stroke="#C6D2E8" stroke-width="0.6" stroke-dasharray="3 3"/>
<path d="M0 84H201" stroke="#C6D2E8" stroke-width="0.6" stroke-dasharray="3 3"/>
<path d="M0 97H201" stroke="#C6D2E8" stroke-width="0.6" stroke-dasharray="3 3"/>
<path d="M0 108H201" stroke="#C6D2E8" stroke-width="0.6" stroke-dasharray="3 3"/>
<path d="M0 121H201" stroke="#C6D2E8" stroke-width="0.6" stroke-dasharray="3 3"/>
<path d="M0 133H201" stroke="#C6D2E8"/>
<path d="M24 11C24 5.47715 28.4772 1 34 1H86C91.5229 1 96 5.47715 96 11V133H24V11Z" fill="#D1E9FE"/>
<path fill-rule="evenodd" clip-rule="evenodd" d="M121.363 1C118.602 1 116.363 3.23858 116.363 6V26.5H112.005C108.98 26.5 107.857 30.4705 110.434 32.0554L141.292 51.0335C142.256 51.6263 143.471 51.6263 144.435 51.0335L175.294 32.0554C177.871 30.4705 176.748 26.5 173.722 26.5H168.363V6C168.363 3.23858 166.125 1 163.363 1H121.363Z" fill="#CCFF00"/>
<path d="M125.191 17.704C125.383 17.52 125.611 17.312 125.875 17.08C126.139 16.848 126.391 16.628 126.631 16.42C127.223 15.916 127.687 15.5 128.023 15.172C128.367 14.844 128.651 14.508 128.875 14.164C129.099 13.82 129.211 13.488 129.211 13.168C129.211 12.72 129.083 12.352 128.827 12.064C128.571 11.776 128.243 11.632 127.843 11.632C127.523 11.632 127.215 11.736 126.919 11.944C126.623 12.144 126.403 12.408 126.259 12.736L124.927 12.136C125.175 11.568 125.571 11.104 126.115 10.744C126.667 10.384 127.243 10.204 127.843 10.204C128.411 10.204 128.915 10.332 129.355 10.588C129.795 10.836 130.139 11.184 130.387 11.632C130.635 12.08 130.759 12.592 130.759 13.168C130.759 13.736 130.603 14.28 130.291 14.8C129.979 15.32 129.607 15.788 129.175 16.204C128.743 16.612 128.167 17.112 127.447 17.704H130.891V19.048H125.311L125.191 17.704ZM136.77 14.512C137.162 14.736 137.482 15.044 137.73 15.436C137.978 15.82 138.102 16.2 138.102 16.576C138.102 17.064 137.97 17.504 137.706 17.896C137.45 18.28 137.086 18.58 136.614 18.796C136.15 19.012 135.622 19.12 135.03 19.12C134.438 19.12 133.906 19.008 133.434 18.784C132.97 18.552 132.606 18.236 132.342 17.836C132.086 17.428 131.958 16.964 131.958 16.444H133.506C133.506 16.828 133.646 17.144 133.926 17.392C134.214 17.632 134.582 17.752 135.03 17.752C135.494 17.752 135.874 17.632 136.17 17.392C136.466 17.144 136.614 16.828 136.614 16.444C136.614 16.068 136.466 15.76 136.17 15.52C135.882 15.272 135.51 15.148 135.054 15.148H134.442V13.888H135.066C135.482 13.888 135.822 13.78 136.086 13.564C136.35 13.34 136.482 13.056 136.482 12.712C136.482 12.376 136.354 12.104 136.098 11.896C135.842 11.68 135.514 11.572 135.114 11.572C134.722 11.572 134.402 11.68 134.154 11.896C133.906 12.112 133.782 12.388 133.782 12.724H132.234C132.234 12.236 132.354 11.8 132.594 11.416C132.842 11.032 133.182 10.736 133.614 10.528C134.054 10.312 134.554 10.204 135.114 10.204C135.666 10.204 136.158 10.308 136.59 10.516C137.022 10.716 137.358 10.996 137.598 11.356C137.838 11.716 137.958 12.128 137.958 12.592C137.958 12.936 137.846 13.288 137.622 13.648C137.406 14.008 137.122 14.296 136.77 14.512Z" fill="#232428"/>
<path d="M145.844 10.096V15.34H140.684V10.096H145.844ZM142.256 11.356V14.068H144.272V11.356H142.256ZM148.88 9.22V12.316H150.296V13.636H148.88V17.092H147.284V9.22H148.88ZM143.504 16.312V18.568H149.264V19.84H141.896V16.312H143.504ZM159.956 9.22V17.404H158.36V16.564H156.344V15.484H158.36V9.22H159.956ZM153.644 16.624V15.184C152.868 15.224 151.988 15.244 151.004 15.244L150.812 13.984C152.188 13.976 153.424 13.952 154.52 13.912C155.624 13.872 156.676 13.788 157.676 13.66L157.772 14.788C157.044 14.916 156.2 15.02 155.24 15.1V17.128H153.74V18.568H160.208V19.84H152.144V16.624H153.644ZM154.28 9.58C154.8 9.58 155.264 9.664 155.672 9.832C156.08 9.992 156.396 10.22 156.62 10.516C156.852 10.804 156.968 11.136 156.968 11.512C156.968 11.896 156.852 12.236 156.62 12.532C156.396 12.82 156.08 13.044 155.672 13.204C155.272 13.364 154.808 13.444 154.28 13.444C153.752 13.444 153.284 13.364 152.876 13.204C152.468 13.044 152.148 12.82 151.916 12.532C151.692 12.236 151.58 11.896 151.58 11.512C151.58 11.136 151.692 10.804 151.916 10.516C152.148 10.22 152.468 9.992 152.876 9.832C153.292 9.664 153.76 9.58 154.28 9.58ZM154.28 10.744C153.92 10.744 153.632 10.812 153.416 10.948C153.208 11.076 153.104 11.264 153.104 11.512C153.104 11.76 153.208 11.952 153.416 12.088C153.632 12.216 153.92 12.28 154.28 12.28C154.648 12.28 154.936 12.216 155.144 12.088C155.352 11.952 155.456 11.76 155.456 11.512C155.456 11.264 155.352 11.076 155.144 10.948C154.936 10.812 154.648 10.744 154.28 10.744Z" fill="#232428"/>
<path d="M139.812 26.416V24.232H141.408V29.704H139.812V27.676H138.204V26.416H139.812ZM138.48 24.604V25.876H136.404C136.444 26.452 136.664 26.976 137.064 27.448C137.464 27.92 138.048 28.264 138.816 28.48L138.072 29.728C137.496 29.56 137 29.312 136.584 28.984C136.168 28.648 135.84 28.256 135.6 27.808C135.352 28.32 135.008 28.764 134.568 29.14C134.136 29.508 133.616 29.776 133.008 29.944L132.252 28.708C133.044 28.452 133.652 28.064 134.076 27.544C134.508 27.024 134.744 26.468 134.784 25.876H132.672V24.604H138.48ZM141.408 30.124V33.064H135.852V33.676H141.708V34.912H134.268V31.912H139.824V31.348H134.256V30.124H141.408ZM151.356 24.22V26.536H152.784V27.844H151.356V30.232H149.76V24.22H151.356ZM148.356 24.82C148.356 26.26 147.924 27.464 147.06 28.432C146.204 29.392 144.968 30.08 143.352 30.496L142.728 29.236C143.888 28.948 144.796 28.532 145.452 27.988C146.116 27.436 146.508 26.804 146.628 26.092H143.256V24.82H148.356ZM151.356 30.652V34.9H144.348V30.652H151.356ZM145.92 31.912V33.652H149.796V31.912H145.92Z" fill="#232428"/>
<path d="M106 65C106 59.4772 110.477 55 116 55H168C173.523 55 178 59.4772 178 65V133H106V65Z" fill="url(#paint0_linear_44_855)"/>
<path d="M42.9653 66.968L43.2653 62.3H47.9333V63.416H44.4893L44.3453 65.552C44.7693 65.36 45.1813 65.264 45.5813 65.264C46.1733 65.264 46.7013 65.388 47.1653 65.636C47.6373 65.884 48.0013 66.232 48.2573 66.68C48.5213 67.12 48.6533 67.624 48.6533 68.192C48.6533 68.768 48.5213 69.28 48.2573 69.728C48.0013 70.176 47.6373 70.528 47.1653 70.784C46.7013 71.032 46.1733 71.156 45.5813 71.156C45.1173 71.156 44.6773 71.06 44.2613 70.868C43.8533 70.668 43.5053 70.396 43.2173 70.052C42.9293 69.7 42.7333 69.304 42.6293 68.864L43.8653 68.576C43.9533 68.976 44.1573 69.308 44.4773 69.572C44.7973 69.828 45.1653 69.956 45.5813 69.956C46.1093 69.956 46.5413 69.792 46.8773 69.464C47.2133 69.136 47.3813 68.712 47.3813 68.192C47.3813 67.688 47.2133 67.276 46.8773 66.956C46.5413 66.628 46.1093 66.464 45.5813 66.464C45.3573 66.464 45.1213 66.528 44.8733 66.656C44.6253 66.776 44.4133 66.932 44.2373 67.124L42.9653 66.968ZM53.112 69.992C53.504 69.992 53.852 69.852 54.156 69.572C54.46 69.292 54.696 68.904 54.864 68.408C55.032 67.904 55.116 67.324 55.116 66.668C55.116 66.012 55.032 65.432 54.864 64.928C54.696 64.424 54.46 64.032 54.156 63.752C53.852 63.472 53.504 63.332 53.112 63.332C52.72 63.332 52.368 63.472 52.056 63.752C51.752 64.032 51.516 64.424 51.348 64.928C51.18 65.432 51.096 66.012 51.096 66.668C51.096 67.324 51.18 67.904 51.348 68.408C51.516 68.904 51.752 69.292 52.056 69.572C52.368 69.852 52.72 69.992 53.112 69.992ZM53.112 71.12C52.48 71.12 51.912 70.932 51.408 70.556C50.912 70.172 50.524 69.644 50.244 68.972C49.964 68.292 49.824 67.524 49.824 66.668C49.824 65.804 49.964 65.036 50.244 64.364C50.524 63.684 50.912 63.156 51.408 62.78C51.904 62.404 52.472 62.216 53.112 62.216C53.744 62.216 54.308 62.404 54.804 62.78C55.3 63.156 55.688 63.684 55.968 64.364C56.248 65.036 56.388 65.804 56.388 66.668C56.388 67.524 56.248 68.292 55.968 68.972C55.688 69.644 55.3 70.172 54.804 70.556C54.308 70.932 53.744 71.12 53.112 71.12Z" fill="#788FBD"/>
<path d="M62.8077 62.192V67.28H57.7917V62.192H62.8077ZM59.0877 63.236V66.212H61.5117V63.236H59.0877ZM65.7837 61.28V64.424H67.2597V65.516H65.7837V69.08H64.4637V61.28H65.7837ZM60.3117 68.324V70.7H66.2037V71.756H58.9917V68.324H60.3117ZM76.788 61.28V69.392H75.468V68.444H73.404V67.532H75.468V61.28H76.788ZM70.572 68.612V70.7H77.04V71.756H69.252V68.612H70.572ZM67.848 66.092C69.216 66.084 70.448 66.06 71.544 66.02C72.64 65.98 73.688 65.9 74.688 65.78L74.76 66.716C73.952 66.852 73.064 66.952 72.096 67.016V69.068H70.776V67.088C69.96 67.128 69.04 67.148 68.016 67.148L67.848 66.092ZM71.292 61.676C71.812 61.676 72.272 61.756 72.672 61.916C73.072 62.068 73.384 62.288 73.608 62.576C73.832 62.864 73.944 63.192 73.944 63.56C73.944 63.936 73.832 64.268 73.608 64.556C73.384 64.844 73.072 65.068 72.672 65.228C72.272 65.38 71.812 65.456 71.292 65.456C70.772 65.456 70.312 65.38 69.912 65.228C69.512 65.068 69.2 64.844 68.976 64.556C68.752 64.268 68.64 63.936 68.64 63.56C68.64 63.192 68.752 62.864 68.976 62.576C69.2 62.288 69.512 62.068 69.912 61.916C70.32 61.756 70.78 61.676 71.292 61.676ZM71.292 62.636C70.876 62.636 70.54 62.72 70.284 62.888C70.028 63.048 69.9 63.272 69.9 63.56C69.9 63.848 70.028 64.076 70.284 64.244C70.54 64.404 70.876 64.484 71.292 64.484C71.716 64.484 72.052 64.404 72.3 64.244C72.556 64.076 72.684 63.848 72.684 63.56C72.684 63.272 72.556 63.048 72.3 62.888C72.052 62.72 71.716 62.636 71.292 62.636Z" fill="#788FBD"/>
<path d="M124.918 71.92C125.11 71.736 125.31 71.552 125.518 71.368C125.726 71.176 125.934 70.988 126.142 70.804C126.79 70.228 127.306 69.752 127.69 69.376C128.074 68.992 128.398 68.6 128.662 68.2C128.926 67.8 129.058 67.42 129.058 67.06C129.058 66.564 128.914 66.16 128.626 65.848C128.346 65.536 127.986 65.38 127.546 65.38C127.202 65.38 126.874 65.492 126.562 65.716C126.258 65.94 126.026 66.228 125.866 66.58L124.75 66.088C124.99 65.536 125.37 65.088 125.89 64.744C126.418 64.392 126.97 64.216 127.546 64.216C128.09 64.216 128.57 64.336 128.986 64.576C129.41 64.816 129.738 65.152 129.97 65.584C130.21 66.016 130.33 66.508 130.33 67.06C130.33 67.604 130.166 68.144 129.838 68.68C129.518 69.216 129.13 69.708 128.674 70.156C128.218 70.604 127.63 71.136 126.91 71.752L126.718 71.92H130.474V73.036H125.038L124.918 71.92ZM132.432 73.06L135.852 65.38L131.844 65.392V64.264H137.124L137.244 65.38L133.824 73.06H132.432Z" fill="white"/>
<path d="M143.808 64.192V69.28H138.792V64.192H143.808ZM140.088 65.236V68.212H142.512V65.236H140.088ZM146.784 63.28V66.424H148.26V67.516H146.784V71.08H145.464V63.28H146.784ZM141.312 70.324V72.7H147.204V73.756H139.992V70.324H141.312ZM157.788 63.28V71.392H156.468V70.444H154.404V69.532H156.468V63.28H157.788ZM151.572 70.612V72.7H158.04V73.756H150.252V70.612H151.572ZM148.848 68.092C150.216 68.084 151.448 68.06 152.544 68.02C153.64 67.98 154.688 67.9 155.688 67.78L155.76 68.716C154.952 68.852 154.064 68.952 153.096 69.016V71.068H151.776V69.088C150.96 69.128 150.04 69.148 149.016 69.148L148.848 68.092ZM152.292 63.676C152.812 63.676 153.272 63.756 153.672 63.916C154.072 64.068 154.384 64.288 154.608 64.576C154.832 64.864 154.944 65.192 154.944 65.56C154.944 65.936 154.832 66.268 154.608 66.556C154.384 66.844 154.072 67.068 153.672 67.228C153.272 67.38 152.812 67.456 152.292 67.456C151.772 67.456 151.312 67.38 150.912 67.228C150.512 67.068 150.2 66.844 149.976 66.556C149.752 66.268 149.64 65.936 149.64 65.56C149.64 65.192 149.752 64.864 149.976 64.576C150.2 64.288 150.512 64.068 150.912 63.916C151.32 63.756 151.78 63.676 152.292 63.676ZM152.292 64.636C151.876 64.636 151.54 64.72 151.284 64.888C151.028 65.048 150.9 65.272 150.9 65.56C150.9 65.848 151.028 66.076 151.284 66.244C151.54 66.404 151.876 66.484 152.292 66.484C152.716 66.484 153.052 66.404 153.3 66.244C153.556 66.076 153.684 65.848 153.684 65.56C153.684 65.272 153.556 65.048 153.3 64.888C153.052 64.72 152.716 64.636 152.292 64.636Z" fill="white"/>
<defs>
<linearGradient id="paint0_linear_44_855" x1="142" y1="55" x2="142" y2="142.032" gradientUnits="userSpaceOnUse">
<stop offset="0.5" stop-color="#0046FF"/>
<stop offset="1" stop-color="#96FFF4"/>
</linearGradient>
</defs>
</svg>
